# Blender v2.79 (sub 0) OBJ File: 'can.blend'
# www.blender.org
mtllib power_down.mtl
o Cylinder_Cylinder.001
v 0.000000 0.000000 -0.227392
v 0.000000 1.000000 -0.204584
v 0.044362 0.000000 -0.223023
v 0.039912 1.000000 -0.200653
v 0.087019 0.000000 -0.210083
v 0.078291 1.000000 -0.189011
v 0.126332 0.000000 -0.189069
v 0.113661 1.000000 -0.170106
v 0.160790 0.000000 -0.160790
v 0.144663 1.000000 -0.144663
v 0.189069 0.000000 -0.126332
v 0.170106 1.000000 -0.113661
v 0.210083 0.000000 -0.087019
v 0.189011 1.000000 -0.078291
v 0.223023 0.000000 -0.044362
v 0.200653 1.000000 -0.039912
v 0.227392 0.000000 -0.000000
v 0.204584 1.000000 -0.000000
v 0.223023 0.000000 0.044362
v 0.200653 1.000000 0.039912
v 0.210083 0.000000 0.087019
v 0.189011 1.000000 0.078291
v 0.189069 0.000000 0.126332
v 0.170106 1.000000 0.113661
v 0.160790 0.000000 0.160790
v 0.144663 1.000000 0.144663
v 0.126332 0.000000 0.189069
v 0.113661 1.000000 0.170106
v 0.087019 0.000000 0.210083
v 0.078291 1.000000 0.189011
v 0.044362 0.000000 0.223023
v 0.039912 1.000000 0.200653
v -0.000000 0.000000 0.227392
v -0.000000 1.000000 0.204584
v -0.044362 0.000000 0.223023
v -0.039913 1.000000 0.200653
v -0.087019 0.000000 0.210083
v -0.078291 1.000000 0.189011
v -0.126332 0.000000 0.189069
v -0.113661 1.000000 0.170106
v -0.160790 0.000000 0.160790
v -0.144663 1.000000 0.144663
v -0.189069 0.000000 0.126332
v -0.170106 1.000000 0.113661
v -0.210083 0.000000 0.087019
v -0.189011 1.000000 0.078291
v -0.223023 0.000000 0.044362
v -0.200653 1.000000 0.039912
v -0.227392 0.000000 -0.000000
v -0.204584 1.000000 -0.000000
v -0.223023 0.000000 -0.044362
v -0.200653 1.000000 -0.039913
v -0.210083 0.000000 -0.087019
v -0.189011 1.000000 -0.078291
v -0.189069 0.000000 -0.126332
v -0.170106 1.000000 -0.113661
v -0.160790 0.000000 -0.160791
v -0.144663 1.000000 -0.144663
v -0.126332 0.000000 -0.189070
v -0.113661 1.000000 -0.170106
v -0.087019 0.000000 -0.210083
v -0.078291 1.000000 -0.189011
v -0.044362 0.000000 -0.223023
v -0.039912 1.000000 -0.200653
v 0.000000 0.914569 -0.250000
v 0.048773 0.914569 -0.245196
v 0.095671 0.914569 -0.230970
v 0.138893 0.914569 -0.207867
v 0.176777 0.914569 -0.176777
v 0.207867 0.914569 -0.138893
v 0.230970 0.914569 -0.095671
v 0.245196 0.914569 -0.048773
v 0.250000 0.914569 -0.000000
v 0.245196 0.914569 0.048773
v 0.230970 0.914569 0.095671
v 0.207867 0.914569 0.138893
v 0.176777 0.914569 0.176777
v 0.138893 0.914569 0.207867
v 0.095671 0.914569 0.230970
v 0.048773 0.914569 0.245196
v -0.000000 0.914569 0.250000
v -0.048773 0.914569 0.245196
v -0.095671 0.914569 0.230970
v -0.138893 0.914569 0.207867
v -0.176777 0.914569 0.176777
v -0.207868 0.914569 0.138892
v -0.230970 0.914569 0.095671
v -0.245196 0.914569 0.048772
v -0.250000 0.914569 -0.000000
v -0.245196 0.914569 -0.048773
v -0.230970 0.914569 -0.095671
v -0.207867 0.914569 -0.138893
v -0.176776 0.914569 -0.176777
v -0.138892 0.914569 -0.207868
v -0.095671 0.914569 -0.230970
v -0.048772 0.914569 -0.245196
v 0.048773 0.072462 -0.245196
v 0.095671 0.072462 -0.230970
v 0.138893 0.072462 -0.207867
v 0.176777 0.072462 -0.176777
v 0.207867 0.072462 -0.138893
v 0.230970 0.072462 -0.095671
v 0.245196 0.072462 -0.048773
v 0.250000 0.072462 -0.000000
v 0.245196 0.072462 0.048773
v 0.230970 0.072462 0.095671
v 0.207867 0.072462 0.138893
v 0.176777 0.072462 0.176777
v 0.138893 0.072462 0.207867
v 0.095671 0.072462 0.230970
v 0.048773 0.072462 0.245196
v -0.000000 0.072462 0.250000
v -0.048773 0.072462 0.245196
v -0.095671 0.072462 0.230970
v -0.138893 0.072462 0.207867
v -0.176777 0.072462 0.176777
v -0.207868 0.072462 0.138892
v -0.230970 0.072462 0.095671
v -0.245196 0.072462 0.048772
v -0.250000 0.072462 -0.000000
v -0.245196 0.072462 -0.048773
v -0.230970 0.072462 -0.095671
v -0.207867 0.072462 -0.138893
v -0.176776 0.072462 -0.176777
v -0.138892 0.072462 -0.207868
v -0.095671 0.072462 -0.230970
v -0.048772 0.072462 -0.245196
v 0.000000 0.072462 -0.250000
v 0.035926 0.974841 -0.180612
v 0.000000 0.974841 -0.184151
v 0.070471 0.974841 -0.170133
v 0.102309 0.974841 -0.153116
v 0.130214 0.974841 -0.130214
v 0.153116 0.974841 -0.102309
v 0.170133 0.974841 -0.070471
v 0.180612 0.974841 -0.035926
v 0.184151 0.974841 -0.000000
v 0.180612 0.974841 0.035926
v 0.170133 0.974841 0.070471
v 0.153116 0.974841 0.102309
v 0.130214 0.974841 0.130214
v 0.102309 0.974841 0.153116
v 0.070471 0.974841 0.170133
v 0.035926 0.974841 0.180612
v -0.000000 0.974841 0.184151
v -0.035926 0.974841 0.180612
v -0.070472 0.974841 0.170133
v -0.102309 0.974841 0.153116
v -0.130214 0.974841 0.130214
v -0.153116 0.974841 0.102309
v -0.170133 0.974841 0.070471
v -0.180612 0.974841 0.035926
v -0.184151 0.974841 -0.000000
v -0.180612 0.974841 -0.035926
v -0.170133 0.974841 -0.070472
v -0.153116 0.974841 -0.102309
v -0.130214 0.974841 -0.130214
v -0.102308 0.974841 -0.153116
v -0.070471 0.974841 -0.170133
v -0.035926 0.974841 -0.180612
vt 0.000000 0.000000
vt 0.000000 0.000000
vt 0.000000 0.000000
vt 0.000000 0.000000
vt 0.000000 0.000000
vt 0.000000 0.000000
vt 0.000000 0.000000
vt 0.000000 0.000000
vt 0.000000 0.000000
vt 0.000000 0.000000
vt 0.000000 0.000000
vt 0.000000 0.000000
vt 0.000000 0.000000
vt 0.000000 0.000000
vt 0.000000 0.000000
vt 0.000000 0.000000
vt 0.000000 0.000000
vt 0.000000 0.000000
vt 0.000000 0.000000
vt 0.000000 0.000000
vt 0.000000 0.000000
vt 0.000000 0.000000
vt 0.000000 0.000000
vt 0.000000 0.000000
vt 0.000000 0.000000
vt 0.000000 0.000000
vt 0.000000 0.000000
vt 0.000000 0.000000
vt 0.000000 0.000000
vt 0.000000 0.000000
vt 0.000000 0.000000
vt 0.000000 0.000000
vt 0.000000 0.000000
vt 0.000000 0.000000
vt 0.000000 0.000000
vt 0.000000 0.000000
vt 0.000000 0.000000
vt 0.000000 0.000000
vt 0.000000 0.000000
vt 0.000000 0.000000
vt 0.000000 0.000000
vt 0.000000 0.000000
vt 0.000000 0.000000
vt 0.000000 0.000000
vt 0.000000 0.000000
vt 0.000000 0.000000
vt 0.000000 0.000000
vt 0.000000 0.000000
vt 0.000000 0.000000
vt 0.000000 0.000000
vt 0.000000 0.000000
vt 0.000000 0.000000
vt 0.000000 0.000000
vt 0.000000 0.000000
vt 0.000000 0.000000
vt 0.000000 0.000000
vt 0.000000 0.000000
vt 0.000000 0.000000
vt 0.000000 0.000000
vt 0.000000 0.000000
vt 0.000000 0.000000
vt 0.000000 0.000000
vt 0.000000 0.000000
vt 0.000000 0.000000
vt 0.000000 0.000000
vt 0.000000 0.000000
vt 0.000000 0.000000
vt 0.000000 0.000000
vt 0.000000 0.000000
vt 0.000000 0.000000
vt 0.000000 0.000000
vt 0.000000 0.000000
vt 0.000000 0.000000
vt 0.000000 0.000000
vt 0.000000 0.000000
vt 0.000000 0.000000
vt 0.000000 0.000000
vt 0.000000 0.000000
vt 0.000000 0.000000
vt 0.000000 0.000000
vt 0.000000 0.000000
vt 0.000000 0.000000
vt 0.000000 0.000000
vt 0.000000 0.000000
vt 0.000000 0.000000
vt 0.000000 0.000000
vt 0.000000 0.000000
vt 0.000000 0.000000
vt 0.000000 0.000000
vt 0.000000 0.000000
vt 0.000000 0.000000
vt 0.000000 0.000000
vt 0.000000 0.000000
vt 0.000000 0.000000
vt 0.000000 0.000000
vt 0.000000 0.000000
vt 0.000000 0.000000
vt 0.000000 0.000000
vt 0.157569 0.026761
vt 0.157568 0.950833
vt 0.126322 0.950832
vt 0.126324 0.026761
vt 0.188815 0.026762
vt 0.188814 0.950833
vt 0.220061 0.026762
vt 0.220060 0.950834
vt 0.251307 0.026763
vt 0.251306 0.950834
vt 0.282553 0.026763
vt 0.282552 0.950835
vt 0.313798 0.026763
vt 0.313798 0.950835
vt 0.345044 0.026763
vt 0.345044 0.950836
vt 0.376290 0.026764
vt 0.376290 0.950836
vt 0.407536 0.026764
vt 0.407535 0.950836
vt 0.438782 0.026764
vt 0.438781 0.950836
vt 0.470028 0.026764
vt 0.470027 0.950836
vt 0.501273 0.026764
vt 0.501273 0.950836
vt 0.532519 0.026764
vt 0.532519 0.950837
vt 0.563765 0.026764
vt 0.563765 0.950837
vt 0.595011 0.026764
vt 0.595011 0.950836
vt 0.626257 0.026764
vt 0.626257 0.950836
vt 0.657503 0.026764
vt 0.657503 0.950836
vt 0.688748 0.026763
vt 0.688749 0.950836
vt 0.719994 0.026763
vt 0.719995 0.950836
vt 0.751240 0.026763
vt 0.751241 0.950835
vt 0.782486 0.026762
vt 0.782487 0.950835
vt 0.813732 0.026762
vt 0.813733 0.950835
vt 0.844978 0.026761
vt 0.844979 0.950834
vt 0.876223 0.026761
vt 0.876225 0.950834
vt 0.907469 0.026760
vt 0.907471 0.950833
vt 0.938715 0.026760
vt 0.938717 0.950833
vt 0.969961 0.026759
vt 0.969963 0.950832
vt 1.001207 0.026758
vt 1.001209 0.950831
vt 0.032587 0.026759
vt 0.032585 0.950830
vt 0.001339 0.950829
vt 0.001341 0.026758
vt 0.063832 0.026759
vt 0.063831 0.950831
vt 0.095078 0.026760
vt 0.095076 0.950831
vt 0.000000 0.000000
vt 0.000000 0.000000
vt 0.000000 0.000000
vt 0.000000 0.000000
vt 0.000000 0.000000
vt 0.000000 0.000000
vt 0.000000 0.000000
vt 0.000000 0.000000
vt 0.000000 0.000000
vt 0.000000 0.000000
vt 0.000000 0.000000
vt 0.000000 0.000000
vt 0.000000 0.000000
vt 0.000000 0.000000
vt 0.000000 0.000000
vt 0.000000 0.000000
vt 0.000000 0.000000
vt 0.000000 0.000000
vt 0.000000 0.000000
vt 0.000000 0.000000
vt 0.000000 0.000000
vt 0.000000 0.000000
vt 0.000000 0.000000
vt 0.000000 0.000000
vt 0.000000 0.000000
vt 0.000000 0.000000
vt 0.000000 0.000000
vt 0.000000 0.000000
vt 0.000000 0.000000
vt 0.000000 0.000000
vt 0.000000 0.000000
vt 0.000000 0.000000
vt 0.000000 0.000000
vt 0.000000 0.000000
vt 0.000000 0.000000
vt 0.000000 0.000000
vt 0.000000 0.000000
vt 0.000000 0.000000
vt 0.000000 0.000000
vt 0.000000 0.000000
vt 0.000000 0.000000
vt 0.000000 0.000000
vt 0.000000 0.000000
vt 0.000000 0.000000
vt 0.000000 0.000000
vt 0.000000 0.000000
vt 0.000000 0.000000
vt 0.000000 0.000000
vt 0.000000 0.000000
vt 0.000000 0.000000
vt 0.000000 0.000000
vt 0.000000 0.000000
vt 0.000000 0.000000
vt 0.000000 0.000000
vt 0.000000 0.000000
vt 0.000000 0.000000
vt 0.000000 0.000000
vt 0.000000 0.000000
vt 0.000000 0.000000
vt 0.000000 0.000000
vt 0.000000 0.000000
vt 0.000000 0.000000
vn 0.0866 0.4676 -0.8797
vn 0.2566 0.4676 -0.8459
vn 0.4167 0.4676 -0.7795
vn 0.5608 0.4676 -0.6833
vn 0.6833 0.4676 -0.5608
vn 0.7795 0.4676 -0.4167
vn 0.8459 0.4676 -0.2566
vn 0.8797 0.4676 -0.0866
vn 0.8797 0.4676 0.0866
vn 0.8459 0.4676 0.2566
vn 0.7795 0.4676 0.4167
vn 0.6833 0.4676 0.5608
vn 0.5608 0.4676 0.6833
vn 0.4167 0.4676 0.7795
vn 0.2566 0.4676 0.8459
vn 0.0866 0.4676 0.8797
vn -0.0866 0.4676 0.8797
vn -0.2566 0.4676 0.8459
vn -0.4167 0.4676 0.7795
vn -0.5608 0.4676 0.6833
vn -0.6833 0.4676 0.5608
vn -0.7795 0.4676 0.4167
vn -0.8459 0.4676 0.2566
vn -0.8797 0.4676 0.0866
vn -0.8797 0.4676 -0.0866
vn -0.8459 0.4676 -0.2566
vn -0.7795 0.4676 -0.4167
vn -0.6833 0.4676 -0.5608
vn -0.5608 0.4676 -0.6833
vn -0.4167 0.4676 -0.7796
vn 0.2258 0.6286 0.7442
vn -0.2566 0.4676 -0.8459
vn -0.0866 0.4676 -0.8797
vn 0.0000 -1.0000 0.0000
vn -0.0980 0.0000 -0.9952
vn -0.2903 0.0000 -0.9569
vn -0.4714 0.0000 -0.8819
vn -0.6344 0.0000 -0.7730
vn -0.7730 0.0000 -0.6344
vn -0.8819 0.0000 -0.4714
vn -0.9569 0.0000 -0.2903
vn -0.9952 0.0000 -0.0980
vn -0.9952 0.0000 0.0980
vn -0.9569 0.0000 0.2903
vn -0.8819 0.0000 0.4714
vn -0.7730 0.0000 0.6344
vn -0.6344 0.0000 0.7730
vn -0.4714 0.0000 0.8819
vn -0.2903 0.0000 0.9569
vn -0.0980 0.0000 0.9952
vn 0.0980 0.0000 0.9952
vn 0.2903 0.0000 0.9569
vn 0.4714 0.0000 0.8819
vn 0.6344 0.0000 0.7730
vn 0.7730 0.0000 0.6344
vn 0.8819 0.0000 0.4714
vn 0.9569 0.0000 0.2903
vn 0.9952 0.0000 0.0980
vn 0.9952 0.0000 -0.0980
vn 0.9569 0.0000 -0.2903
vn 0.8819 0.0000 -0.4714
vn 0.7730 0.0000 -0.6344
vn 0.6344 0.0000 -0.7730
vn 0.4714 0.0000 -0.8819
vn 0.2903 0.0000 -0.9569
vn 0.0980 0.0000 -0.9952
vn 0.0936 -0.2965 -0.9504
vn 0.2772 -0.2965 -0.9139
vn 0.4502 -0.2965 -0.8423
vn 0.6059 -0.2965 -0.7382
vn 0.7382 -0.2965 -0.6059
vn 0.8423 -0.2965 -0.4502
vn 0.9139 -0.2965 -0.2772
vn 0.9504 -0.2965 -0.0936
vn 0.9504 -0.2965 0.0936
vn 0.9139 -0.2965 0.2772
vn 0.8423 -0.2965 0.4502
vn 0.7382 -0.2965 0.6059
vn 0.6059 -0.2965 0.7382
vn 0.4502 -0.2965 0.8423
vn 0.2772 -0.2965 0.9139
vn 0.0936 -0.2965 0.9504
vn -0.0936 -0.2965 0.9504
vn -0.2772 -0.2965 0.9139
vn -0.4502 -0.2965 0.8423
vn -0.6059 -0.2965 0.7382
vn -0.7382 -0.2965 0.6059
vn -0.8423 -0.2965 0.4502
vn -0.9139 -0.2965 0.2772
vn -0.9504 -0.2965 0.0936
vn -0.9504 -0.2965 -0.0936
vn -0.9139 -0.2965 -0.2772
vn -0.8423 -0.2965 -0.4502
vn -0.7382 -0.2965 -0.6059
vn -0.6059 -0.2965 -0.7382
vn -0.4502 -0.2965 -0.8423
vn -0.2772 -0.2965 -0.9139
vn -0.0936 -0.2965 -0.9504
vn 0.0000 1.0000 0.0000
vn -0.7740 0.6286 -0.0762
vn 0.2258 0.6286 -0.7442
vn 0.6859 0.6286 0.3666
vn -0.6012 0.6286 0.4934
vn -0.3666 0.6286 -0.6859
vn 0.7442 0.6286 -0.2258
vn -0.0762 0.6286 0.7740
vn 0.0762 0.6286 0.7740
vn -0.7442 0.6286 -0.2258
vn 0.3666 0.6286 -0.6859
vn 0.6012 0.6286 0.4934
vn -0.6859 0.6286 0.3666
vn -0.2258 0.6286 -0.7442
vn 0.7740 0.6286 -0.0762
vn -0.2258 0.6286 0.7442
vn -0.6859 0.6286 -0.3666
vn 0.4934 0.6286 -0.6012
vn 0.4934 0.6286 0.6012
vn -0.7442 0.6286 0.2258
vn -0.0762 0.6286 -0.7740
vn 0.7740 0.6286 0.0762
vn -0.3666 0.6286 0.6859
vn -0.6012 0.6286 -0.4934
vn 0.6012 0.6286 -0.4934
vn 0.3666 0.6286 0.6859
vn -0.7740 0.6286 0.0762
vn 0.0762 0.6286 -0.7740
vn 0.7442 0.6286 0.2258
vn -0.4934 0.6286 0.6012
vn -0.4934 0.6286 -0.6012
vn 0.6859 0.6286 -0.3666
usemtl (null)
s off
f 65/1/1 2/2/1 4/3/1 66/4/1
f 66/4/2 4/3/2 6/5/2 67/6/2
f 67/6/3 6/5/3 8/7/3 68/8/3
f 68/8/4 8/7/4 10/9/4 69/10/4
f 69/10/5 10/9/5 12/11/5 70/12/5
f 70/12/6 12/11/6 14/13/6 71/14/6
f 71/14/7 14/13/7 16/15/7 72/16/7
f 72/16/8 16/15/8 18/17/8 73/18/8
f 73/18/9 18/17/9 20/19/9 74/20/9
f 74/20/10 20/19/10 22/21/10 75/22/10
f 75/22/11 22/21/11 24/23/11 76/24/11
f 76/24/12 24/23/12 26/25/12 77/26/12
f 77/26/13 26/25/13 28/27/13 78/28/13
f 78/28/14 28/27/14 30/29/14 79/30/14
f 79/30/15 30/29/15 32/31/15 80/32/15
f 80/32/16 32/31/16 34/33/16 81/34/16
f 81/34/17 34/33/17 36/35/17 82/36/17
f 82/36/18 36/35/18 38/37/18 83/38/18
f 83/38/19 38/37/19 40/39/19 84/40/19
f 84/40/20 40/39/20 42/41/20 85/42/20
f 85/42/21 42/41/21 44/43/21 86/44/21
f 86/44/22 44/43/22 46/45/22 87/46/22
f 87/46/23 46/45/23 48/47/23 88/48/23
f 88/48/24 48/47/24 50/49/24 89/50/24
f 89/50/25 50/49/25 52/51/25 90/52/25
f 90/52/26 52/51/26 54/53/26 91/54/26
f 91/54/27 54/53/27 56/55/27 92/56/27
f 92/56/28 56/55/28 58/57/28 93/58/28
f 93/58/29 58/57/29 60/59/29 94/60/29
f 94/60/30 60/59/30 62/61/30 95/62/30
f 64/63/31 62/61/31 159/64/31 160/65/31
f 95/62/32 62/61/32 64/63/32 96/66/32
f 96/66/33 64/63/33 2/2/33 65/1/33
f 1/67/34 3/68/34 5/69/34 7/70/34 9/71/34 11/72/34 13/73/34 15/74/34 17/75/34 19/76/34 21/77/34 23/78/34 25/79/34 27/80/34 29/81/34 31/82/34 33/83/34 35/84/34 37/85/34 39/86/34 41/87/34 43/88/34 45/89/34 47/90/34 49/91/34 51/92/34 53/93/34 55/94/34 57/95/34 59/96/34 61/97/34 63/98/34
f 127/99/35 96/100/35 65/101/35 128/102/35
f 126/103/36 95/104/36 96/100/36 127/99/36
f 125/105/37 94/106/37 95/104/37 126/103/37
f 124/107/38 93/108/38 94/106/38 125/105/38
f 123/109/39 92/110/39 93/108/39 124/107/39
f 122/111/40 91/112/40 92/110/40 123/109/40
f 121/113/41 90/114/41 91/112/41 122/111/41
f 120/115/42 89/116/42 90/114/42 121/113/42
f 119/117/43 88/118/43 89/116/43 120/115/43
f 118/119/44 87/120/44 88/118/44 119/117/44
f 117/121/45 86/122/45 87/120/45 118/119/45
f 116/123/46 85/124/46 86/122/46 117/121/46
f 115/125/47 84/126/47 85/124/47 116/123/47
f 114/127/48 83/128/48 84/126/48 115/125/48
f 113/129/49 82/130/49 83/128/49 114/127/49
f 112/131/50 81/132/50 82/130/50 113/129/50
f 111/133/51 80/134/51 81/132/51 112/131/51
f 110/135/52 79/136/52 80/134/52 111/133/52
f 109/137/53 78/138/53 79/136/53 110/135/53
f 108/139/54 77/140/54 78/138/54 109/137/54
f 107/141/55 76/142/55 77/140/55 108/139/55
f 106/143/56 75/144/56 76/142/56 107/141/56
f 105/145/57 74/146/57 75/144/57 106/143/57
f 104/147/58 73/148/58 74/146/58 105/145/58
f 103/149/59 72/150/59 73/148/59 104/147/59
f 102/151/60 71/152/60 72/150/60 103/149/60
f 101/153/61 70/154/61 71/152/61 102/151/61
f 100/155/62 69/156/62 70/154/62 101/153/62
f 99/157/63 68/158/63 69/159/63 100/160/63
f 98/161/64 67/162/64 68/158/64 99/157/64
f 97/163/65 66/164/65 67/162/65 98/161/65
f 128/102/66 65/101/66 66/164/66 97/163/66
f 1/67/67 128/165/67 97/166/67 3/68/67
f 3/68/68 97/166/68 98/167/68 5/69/68
f 5/69/69 98/167/69 99/168/69 7/70/69
f 7/70/70 99/168/70 100/169/70 9/71/70
f 9/71/71 100/169/71 101/170/71 11/72/71
f 11/72/72 101/170/72 102/171/72 13/73/72
f 13/73/73 102/171/73 103/172/73 15/74/73
f 15/74/74 103/172/74 104/173/74 17/75/74
f 17/75/75 104/173/75 105/174/75 19/76/75
f 19/76/76 105/174/76 106/175/76 21/77/76
f 21/77/77 106/175/77 107/176/77 23/78/77
f 23/78/78 107/176/78 108/177/78 25/79/78
f 25/79/79 108/177/79 109/178/79 27/80/79
f 27/80/80 109/178/80 110/179/80 29/81/80
f 29/81/81 110/179/81 111/180/81 31/82/81
f 31/82/82 111/180/82 112/181/82 33/83/82
f 33/83/83 112/181/83 113/182/83 35/84/83
f 35/84/84 113/182/84 114/183/84 37/85/84
f 37/85/85 114/183/85 115/184/85 39/86/85
f 39/86/86 115/184/86 116/185/86 41/87/86
f 41/87/87 116/185/87 117/186/87 43/88/87
f 43/88/88 117/186/88 118/187/88 45/89/88
f 45/89/89 118/187/89 119/188/89 47/90/89
f 47/90/90 119/188/90 120/189/90 49/91/90
f 49/91/91 120/189/91 121/190/91 51/92/91
f 51/92/92 121/190/92 122/191/92 53/93/92
f 53/93/93 122/191/93 123/192/93 55/94/93
f 55/94/94 123/192/94 124/193/94 57/95/94
f 57/95/95 124/193/95 125/194/95 59/96/95
f 59/96/96 125/194/96 126/195/96 61/97/96
f 61/97/97 126/195/97 127/196/97 63/98/97
f 63/98/98 127/196/98 128/165/98 1/67/98
f 129/197/99 130/198/99 160/65/99 159/64/99 158/199/99 157/200/99 156/201/99 155/202/99 154/203/99 153/204/99 152/205/99 151/206/99 150/207/99 149/208/99 148/209/99 147/210/99 146/211/99 145/212/99 144/213/99 143/214/99 142/215/99 141/216/99 140/217/99 139/218/99 138/219/99 137/220/99 136/221/99 135/222/99 134/223/99 133/224/99 132/225/99 131/226/99
f 20/19/100 18/17/100 137/220/100 138/219/100
f 38/37/101 36/35/101 146/211/101 147/210/101
f 56/55/102 54/53/102 155/202/102 156/201/102
f 12/11/103 10/9/103 133/224/103 134/223/103
f 30/29/104 28/27/104 142/215/104 143/214/104
f 48/47/105 46/45/105 151/206/105 152/205/105
f 4/3/106 2/2/106 130/198/106 129/197/106
f 2/2/107 64/63/107 160/65/107 130/198/107
f 22/21/108 20/19/108 138/219/108 139/218/108
f 40/39/109 38/37/109 147/210/109 148/209/109
f 58/57/110 56/55/110 156/201/110 157/200/110
f 14/13/111 12/11/111 134/223/111 135/222/111
f 32/31/112 30/29/112 143/214/112 144/213/112
f 50/49/113 48/47/113 152/205/113 153/204/113
f 6/5/114 4/3/114 129/197/114 131/226/114
f 24/23/115 22/21/115 139/218/115 140/217/115
f 42/41/116 40/39/116 148/209/116 149/208/116
f 60/59/117 58/57/117 157/200/117 158/199/117
f 16/15/118 14/13/118 135/222/118 136/221/118
f 34/33/119 32/31/119 144/213/119 145/212/119
f 52/51/120 50/49/120 153/204/120 154/203/120
f 8/7/121 6/5/121 131/226/121 132/225/121
f 26/25/122 24/23/122 140/217/122 141/216/122
f 44/43/123 42/41/123 149/208/123 150/207/123
f 62/61/124 60/59/124 158/199/124 159/64/124
f 18/17/125 16/15/125 136/221/125 137/220/125
f 36/35/126 34/33/126 145/212/126 146/211/126
f 54/53/127 52/51/127 154/203/127 155/202/127
f 10/9/128 8/7/128 132/225/128 133/224/128
f 28/27/129 26/25/129 141/216/129 142/215/129
f 46/45/130 44/43/130 150/207/130 151/206/130
l 1 33
l 3 35
l 5 37
l 7 39
l 9 41
l 11 43
l 13 45
l 15 47
l 17 49
l 19 51
l 21 53
l 23 55
l 25 57
l 27 59
l 29 61
l 31 63
