# Blender v2.79 (sub 0) OBJ File: ''
# www.blender.org
mtllib speed_up.mtl
o Circle
v 0.500000 0.500000 0.000000
v 0.490393 0.597545 0.000000
v 0.461940 0.691342 0.000000
v 0.415735 0.777785 0.000000
v 0.353553 0.853553 0.000000
v 0.277785 0.915735 0.000000
v 0.191342 0.961940 0.000000
v 0.097545 0.990393 0.000000
v 0.000000 1.000000 0.000000
v -0.097545 0.990393 -0.000000
v -0.191342 0.961940 -0.000000
v -0.277785 0.915735 -0.000000
v -0.353553 0.853553 -0.000000
v -0.415735 0.777785 -0.000000
v -0.461940 0.691342 -0.000000
v -0.490393 0.597545 -0.000000
v -0.500000 0.500000 -0.000000
v -0.490393 0.402455 -0.000000
v -0.461940 0.308658 -0.000000
v -0.415735 0.222215 -0.000000
v -0.353553 0.146446 -0.000000
v -0.277785 0.084265 -0.000000
v -0.191341 0.038060 -0.000000
v -0.097545 0.009607 -0.000000
v 0.000000 -0.000000 0.000000
v 0.097546 0.009607 0.000000
v 0.191342 0.038060 0.000000
v 0.277786 0.084266 0.000000
v 0.353554 0.146447 0.000000
v 0.415735 0.222215 0.000000
v 0.461940 0.308659 0.000000
v 0.490393 0.402456 0.000000
v 0.500000 0.500000 0.250000
v 0.490393 0.597545 0.250000
v 0.461940 0.691342 0.250000
v 0.415735 0.777785 0.250000
v 0.353553 0.853553 0.250000
v 0.277785 0.915735 0.250000
v 0.191342 0.961940 0.250000
v 0.097545 0.990393 0.250000
v 0.000000 1.000000 0.250000
v -0.097545 0.990393 0.250000
v -0.191342 0.961940 0.250000
v -0.277785 0.915735 0.250000
v -0.353553 0.853553 0.250000
v -0.415735 0.777785 0.250000
v -0.461940 0.691342 0.250000
v -0.490393 0.597545 0.250000
v -0.500000 0.500000 0.250000
v -0.490393 0.402455 0.250000
v -0.461940 0.308658 0.250000
v -0.415735 0.222215 0.250000
v -0.353553 0.146446 0.250000
v -0.277785 0.084265 0.250000
v -0.191341 0.038060 0.250000
v -0.097545 0.009607 0.250000
v 0.000000 -0.000000 0.250000
v 0.097546 0.009607 0.250000
v 0.191342 0.038060 0.250000
v 0.277786 0.084266 0.250000
v 0.353554 0.146447 0.250000
v 0.415735 0.222215 0.250000
v 0.461940 0.308659 0.250000
v 0.490393 0.402456 0.250000
vt 0.143078 0.000083
vt 0.174323 0.000083
vt 0.204967 0.006179
vt 0.233834 0.018136
vt 0.259813 0.035494
vt 0.281906 0.057588
vt 0.299265 0.083566
vt 0.311222 0.112432
vt 0.317318 0.143076
vt 0.317318 0.174321
vt 0.311222 0.204966
vt 0.299265 0.233833
vt 0.281907 0.259812
vt 0.259813 0.281905
vt 0.233834 0.299264
vt 0.204968 0.311221
vt 0.174323 0.317317
vt 0.143078 0.317317
vt 0.112434 0.311221
vt 0.083567 0.299264
vt 0.057588 0.281905
vt 0.035494 0.259812
vt 0.018136 0.233832
vt 0.006179 0.204966
vt 0.000083 0.174321
vt 0.000084 0.143076
vt 0.006179 0.112432
vt 0.018136 0.083566
vt 0.035495 0.057587
vt 0.057588 0.035494
vt 0.083568 0.018136
vt 0.112434 0.006179
vt 0.204967 0.628621
vt 0.174323 0.634716
vt 0.143078 0.634716
vt 0.112434 0.628621
vt 0.083567 0.616664
vt 0.057588 0.599306
vt 0.035495 0.577212
vt 0.018136 0.551233
vt 0.006179 0.522367
vt 0.000084 0.491723
vt 0.000083 0.460478
vt 0.006179 0.429834
vt 0.018136 0.400968
vt 0.035494 0.374988
vt 0.057588 0.352895
vt 0.083567 0.335536
vt 0.112433 0.323579
vt 0.143078 0.317483
vt 0.174323 0.317483
vt 0.204967 0.323579
vt 0.233834 0.335536
vt 0.259813 0.352895
vt 0.281907 0.374988
vt 0.299265 0.400967
vt 0.311222 0.429834
vt 0.317318 0.460479
vt 0.317317 0.491724
vt 0.311222 0.522368
vt 0.299265 0.551234
vt 0.281906 0.577213
vt 0.259813 0.599306
vt 0.233834 0.616665
vt 0.218797 0.634883
vt 0.250042 0.634883
vt 0.250042 0.674729
vt 0.218797 0.674729
vt 0.812448 0.634883
vt 0.843693 0.634883
vt 0.843693 0.674729
vt 0.812448 0.674729
vt 0.656224 0.634883
vt 0.687469 0.634883
vt 0.687469 0.674729
vt 0.656224 0.674729
vt 0.281286 0.634883
vt 0.281286 0.674729
vt 0.874937 0.634883
vt 0.874937 0.674729
vt 0.718714 0.634883
vt 0.718714 0.674729
vt 0.312531 0.634883
vt 0.312531 0.674729
vt 0.906182 0.634883
vt 0.906182 0.674729
vt 0.749958 0.634883
vt 0.749958 0.674729
vt 0.343776 0.634883
vt 0.343776 0.674729
vt 0.937427 0.634883
vt 0.937427 0.674729
vt 0.375021 0.634883
vt 0.375021 0.674729
vt 0.968672 0.634883
vt 0.968672 0.674729
vt 0.406265 0.634883
vt 0.406265 0.674729
vt 0.999917 0.634883
vt 0.999917 0.674729
vt 0.437510 0.634883
vt 0.437510 0.674729
vt 0.000083 0.634883
vt 0.031328 0.634883
vt 0.031328 0.674729
vt 0.000083 0.674729
vt 0.468755 0.634883
vt 0.468755 0.674729
vt 0.062573 0.634883
vt 0.062573 0.674729
vt 0.500000 0.634883
vt 0.500000 0.674729
vt 0.093818 0.634883
vt 0.093818 0.674729
vt 0.531245 0.634883
vt 0.531245 0.674729
vt 0.125062 0.634883
vt 0.125062 0.674729
vt 0.562490 0.634883
vt 0.562490 0.674729
vt 0.156307 0.634883
vt 0.156307 0.674729
vt 0.593734 0.634883
vt 0.593734 0.674729
vt 0.187552 0.634883
vt 0.187552 0.674729
vt 0.781203 0.634883
vt 0.781203 0.674729
vt 0.624979 0.634883
vt 0.624979 0.674729
vn 0.0000 -0.0000 -1.0000
vn -0.0000 -0.0000 1.0000
vn -0.9952 0.0980 0.0000
vn 0.8819 0.4714 0.0000
vn 0.8819 -0.4714 0.0000
vn -0.9952 -0.0980 0.0000
vn 0.7730 0.6344 0.0000
vn 0.9569 -0.2903 0.0000
vn -0.9569 -0.2903 0.0000
vn 0.6344 0.7730 0.0000
vn 0.9952 -0.0980 0.0000
vn -0.8819 -0.4714 0.0000
vn 0.4714 0.8819 0.0000
vn -0.7730 -0.6344 0.0000
vn 0.2903 0.9569 0.0000
vn -0.6344 -0.7730 0.0000
vn 0.0980 0.9952 0.0000
vn -0.4714 -0.8819 -0.0000
vn -0.0980 0.9952 0.0000
vn -0.2903 -0.9569 -0.0000
vn -0.2903 0.9569 0.0000
vn -0.0980 -0.9952 -0.0000
vn -0.4714 0.8819 0.0000
vn 0.0980 -0.9952 0.0000
vn -0.6344 0.7730 0.0000
vn 0.2903 -0.9569 0.0000
vn -0.7730 0.6344 0.0000
vn 0.4714 -0.8819 0.0000
vn -0.8819 0.4714 0.0000
vn 0.9952 0.0980 0.0000
vn 0.6344 -0.7730 0.0000
vn -0.9569 0.2903 0.0000
vn 0.9569 0.2903 0.0000
vn 0.7730 -0.6344 0.0000
usemtl None
s off
f 2/1/1 1/2/1 32/3/1 31/4/1 30/5/1 29/6/1 28/7/1 27/8/1 26/9/1 25/10/1 24/11/1 23/12/1 22/13/1 21/14/1 20/15/1 19/16/1 18/17/1 17/18/1 16/19/1 15/20/1 14/21/1 13/22/1 12/23/1 11/24/1 10/25/1 9/26/1 8/27/1 7/28/1 6/29/1 5/30/1 4/31/1 3/32/1
f 34/33/2 35/34/2 36/35/2 37/36/2 38/37/2 39/38/2 40/39/2 41/40/2 42/41/2 43/42/2 44/43/2 45/44/2 46/45/2 47/46/2 48/47/2 49/48/2 50/49/2 51/50/2 52/51/2 53/52/2 54/53/2 55/54/2 56/55/2 57/56/2 58/57/2 59/58/2 60/59/2 61/60/2 62/61/2 63/62/2 64/63/2 33/64/2
f 16/65/3 17/66/3 49/67/3 48/68/3
f 3/69/4 4/70/4 36/71/4 35/72/4
f 30/73/5 31/74/5 63/75/5 62/76/5
f 17/66/6 18/77/6 50/78/6 49/67/6
f 4/70/7 5/79/7 37/80/7 36/71/7
f 31/74/8 32/81/8 64/82/8 63/75/8
f 18/77/9 19/83/9 51/84/9 50/78/9
f 5/79/10 6/85/10 38/86/10 37/80/10
f 32/81/11 1/87/11 33/88/11 64/82/11
f 19/83/12 20/89/12 52/90/12 51/84/12
f 6/85/13 7/91/13 39/92/13 38/86/13
f 20/89/14 21/93/14 53/94/14 52/90/14
f 7/91/15 8/95/15 40/96/15 39/92/15
f 21/93/16 22/97/16 54/98/16 53/94/16
f 8/95/17 9/99/17 41/100/17 40/96/17
f 22/97/18 23/101/18 55/102/18 54/98/18
f 9/103/19 10/104/19 42/105/19 41/106/19
f 23/101/20 24/107/20 56/108/20 55/102/20
f 10/104/21 11/109/21 43/110/21 42/105/21
f 24/107/22 25/111/22 57/112/22 56/108/22
f 11/109/23 12/113/23 44/114/23 43/110/23
f 25/111/24 26/115/24 58/116/24 57/112/24
f 12/113/25 13/117/25 45/118/25 44/114/25
f 26/115/26 27/119/26 59/120/26 58/116/26
f 13/117/27 14/121/27 46/122/27 45/118/27
f 27/119/28 28/123/28 60/124/28 59/120/28
f 14/121/29 15/125/29 47/126/29 46/122/29
f 1/87/30 2/127/30 34/128/30 33/88/30
f 28/123/31 29/129/31 61/130/31 60/124/31
f 15/125/32 16/65/32 48/68/32 47/126/32
f 2/127/33 3/69/33 35/72/33 34/128/33
f 29/129/34 30/73/34 62/76/34 61/130/34
